<?xml version="1.0" encoding="utf-8"?>
<!-- Svg Vector Icons : http://www.onlinewebfonts.com/icon -->
<!DOCTYPE svg PUBLIC "-//W3C//DTD SVG 1.1//EN" "http://www.w3.org/Graphics/SVG/1.1/DTD/svg11.dtd">
<svg version="1.1" xmlns="http://www.w3.org/2000/svg" xmlns:xlink="http://www.w3.org/1999/xlink" x="0px" y="0px" viewBox="0 0 1000 1000" enable-background="new 0 0 1000 1000" xml:space="preserve">
<metadata> Svg Vector Icons : http://www.onlinewebfonts.com/icon </metadata>
<g><g transform="matrix(1 0 0 -1 0 1952)"><path d="M231.3,1390.3c-17.5,0-31.6-14.2-31.6-31.6v-221.3c0-17.5,14.2-31.6,31.6-31.6c17.4,0,31.6,14.2,31.6,31.6v221.3C262.9,1376.1,248.7,1390.3,231.3,1390.3z M927,1384.7l-3,13.5c-17.2,207.3-218.4,400-426.7,400c-209.2,0-407.7-194.5-422.9-402.9l0.6-10.2c-37-6.6-65.1-38.9-65.1-77.8v-122.5c0-43.7,35.4-79,79-79c43.7,0,79,35.4,79,79v122.5l-1,62.4c0,167.7,162.6,337.8,330.2,337.8c167.6,0,335.2-170.2,335.2-337.8c0-16.5-0.6-62.4-0.6-62.4v-122.5c0-43.7,35.4-79,79-79c43.7,0,79,35.4,79,79v122.5C990,1345.4,963,1377.3,927,1384.7L927,1384.7z M768.7,1390.3c-17.4,0-31.6-14.2-31.6-31.6v-221.3c0-17.5,14.2-31.6,31.6-31.6s31.6,14.2,31.6,31.6v221.3C800.3,1376.1,786.2,1390.3,768.7,1390.3z"/></g></g>
</svg>