<?xml version="1.0" encoding="iso-8859-1"?>
<!-- Generator: Adobe Illustrator 19.0.0, SVG Export Plug-In . SVG Version: 6.00 Build 0)  -->
<svg version="1.1" id="Capa_1" xmlns="http://www.w3.org/2000/svg" xmlns:xlink="http://www.w3.org/1999/xlink" x="0px" y="0px"
	 viewBox="0 0 512 512" style="enable-background:new 0 0 512 512;" xml:space="preserve">
<path style="fill:#A1ACAD;" d="M426.866,268.402c41.125,0,74.463,33.338,74.463,74.463s-33.338,74.463-74.463,74.463V268.402z"/>
<path style="fill:#819696;" d="M501.327,342.865c0,41.128-33.341,74.459-74.458,74.459v-3.301
	c30.371-9.401,52.435-37.696,52.435-71.157s-22.064-61.766-52.435-71.157v-3.311C467.986,268.397,501.327,301.739,501.327,342.865z"
	/>
<path style="fill:#D8362A;" d="M392.588,417.328h34.278V268.402h-34.278c-5.373,0-9.77,4.397-9.77,9.77v129.386
	C382.818,412.931,387.215,417.328,392.588,417.328z"/>
<path style="fill:#A1ACAD;" d="M85.134,268.402c-41.125,0-74.463,33.338-74.463,74.463s33.338,74.463,74.463,74.463V268.402z"/>
<path style="fill:#819696;" d="M85.13,268.397v148.926c-7.425,0-14.598-1.084-21.361-3.11V271.517
	C70.531,269.481,77.706,268.397,85.13,268.397z"/>
<g>
	<path style="fill:#D8362A;" d="M119.412,417.328H85.134V268.402h34.278c5.373,0,9.77,4.397,9.77,9.77v129.386
		C129.182,412.931,124.785,417.328,119.412,417.328z"/>
	<path style="fill:#D8362A;" d="M76.406,192.895c-2.806-0.02-5.062-2.34-4.986-5.145C74.126,87.739,156.048,7.498,256.712,7.498
		S439.298,87.739,442.005,187.75c0.076,2.805-2.179,5.125-4.986,5.145l-18.291,0.13c-2.725,0.019-4.958-2.142-5.041-4.866
		c-2.589-84.467-71.878-152.147-156.974-152.147S102.328,103.69,99.738,188.158c-0.084,2.724-2.317,4.885-5.041,4.866
		L76.406,192.895z"/>
</g>
<path d="M501.327,335.368c-4.142,0-7.498,3.357-7.498,7.498c0,34.392-26.056,62.812-59.467,66.548v-133.09
	c18.663,2.118,35.817,12.061,46.915,27.497c2.418,3.362,7.102,4.127,10.465,1.71c3.362-2.417,4.129-7.102,1.711-10.464
	c-13.911-19.348-35.602-31.642-59.09-33.815v-60.841l2.708-0.019c3.392-0.024,6.559-1.382,8.917-3.821
	c2.354-2.436,3.602-5.64,3.511-9.025c-1.364-50.394-22.024-97.554-58.173-132.795C355.108,19.445,307.302,0,256.711,0
	c-50.589,0-98.396,19.445-134.613,54.751c-36.149,35.241-56.809,82.401-58.173,132.798c-0.091,3.383,1.156,6.587,3.511,9.022
	c2.357,2.439,5.525,3.797,8.917,3.821h0.001l1.283,0.009v60.861C35.947,265.063,3.175,300.2,3.175,342.864
	c0,42.877,33.102,78.146,75.088,81.65v20.34c0,19.935,16.219,36.155,36.154,36.155h22.666c11.668,0,21.16,9.493,21.16,21.16v2.332
	c0,4.141,3.356,7.498,7.498,7.498c4.142,0,7.498-3.357,7.498-7.498v-2.332c0-19.935-16.22-36.155-36.155-36.155h-22.666
	c-11.667,0-21.159-9.492-21.159-21.16v-20.029h26.154c9.521,0,17.267-7.746,17.267-17.267V278.172
	c0-9.521-7.746-17.267-17.267-17.267H92.631v-60.397l2.012,0.014c0.031,0,0.063,0,0.094,0c6.808,0,12.288-5.312,12.495-12.134
	c2.491-81.24,68.151-144.879,149.479-144.879c81.329,0,146.989,63.638,149.48,144.878c0.208,6.823,5.687,12.136,12.494,12.135
	c0.031,0,0.063,0,0.094,0l0.589-0.004v60.387h-26.78c-9.521,0-17.267,7.746-17.267,17.267v129.386
	c0,9.521,7.746,17.267,17.267,17.267h34.278c45.192,0,81.959-36.767,81.959-81.96C508.825,338.724,505.469,335.368,501.327,335.368z
	 M77.636,409.413c-33.41-3.738-59.467-32.157-59.467-66.548s26.057-62.811,59.467-66.548V409.413z M119.411,275.9
	c1.232,0,2.272,1.041,2.272,2.272v129.386c0,1.232-1.041,2.272-2.272,2.272h-26.78V275.9H119.411z M371.363,75.032
	c-30.876-29.997-71.593-46.518-114.651-46.518s-83.775,16.521-114.651,46.518c-30.23,29.369-47.831,68.522-49.727,110.478
	l-13.336-0.094c3.905-95.772,81.485-170.42,177.712-170.42c96.228,0,173.808,74.651,177.713,170.42l-13.337,0.094
	C419.193,143.555,401.592,104.401,371.363,75.032z M419.368,409.83h-26.78c-1.232,0-2.272-1.041-2.272-2.272V278.172
	c0-1.232,1.041-2.272,2.272-2.272h26.78V409.83z"/>
<circle cx="41.227" cy="349.466" r="8.582"/>
<circle cx="49.811" cy="376.267" r="8.582"/>
<g>
</g>
<g>
</g>
<g>
</g>
<g>
</g>
<g>
</g>
<g>
</g>
<g>
</g>
<g>
</g>
<g>
</g>
<g>
</g>
<g>
</g>
<g>
</g>
<g>
</g>
<g>
</g>
<g>
</g>
</svg>
