<svg id="Capa_1" enable-background="new 0 0 512 512" height="512" viewBox="0 0 512 512" width="512" xmlns="http://www.w3.org/2000/svg"><g><path d="m120 77 43 8 61-48h56l66 42 50-1-64-55-73-19-78 18z" fill="#121416"/><path d="m87 216c0-110.457 76.112-206 170-206s170 95.543 170 206h18c0-115.98-85.066-216-190-216s-190 100.02-190 216z" fill="#e4883c"/><g><path d="m65.564 211.337 7.436-95.337h-10l-4 95z" fill="#121416"/><g><path d="m88 217 31 15 10 161-59 6z" fill="#121416"/><path d="m94 209-13 199-53-9-11-120 32-77z" fill="#373e48"/></g><path d="m62.069 404.785 8.748 1.486 12.773-198.89-4.179-.65z" fill="#121416"/></g><g><g><path d="m443 392v120h18l-8-120z" fill="#121416"/><g fill="#6d7784"><path d="m443 428h12.4l-.573-8.601-11.827.514z"/><path d="m443 457.448 14.072-4.367-.581-8.708-13.491 3.046z"/><path d="m443 482.966 15.846-3.279-.598-8.971-15.248 4.732z"/><path d="m443 502.189 17.377.47-.424-6.364-16.953-.917z"/></g></g><path d="m447 217-4-98 13 1-4 97z" fill="#121416"/><path d="m427 226-43 14-12 141 60 11z" fill="#121416"/><path d="m409 209 13 200 51-9 22-115-37-71z" fill="#373e48"/><g><path d="m457 276h-18l-6 37 11 34h14l3-36z" fill="#121416"/><path d="m443 286 9-1 3 51-9 2z" fill="#e4883c"/><g fill="#121416"><path d="m455 291-17 4 1 3 18-3z"/><path d="m440 305 16-3v2l-16 6z"/><path d="m440 314 18-1v6l-18-1z"/><path d="m443 327 14-3v4l-14 5z"/></g></g><path d="m430.625 407.478 6.82-1.204-16.177-196.022-4.075-.416z" fill="#121416"/></g></g></svg>