<?xml version="1.0" encoding="utf-8"?>
<!-- Svg Vector Icons : http://www.onlinewebfonts.com/icon -->
<!DOCTYPE svg PUBLIC "-//W3C//DTD SVG 1.1//EN" "http://www.w3.org/Graphics/SVG/1.1/DTD/svg11.dtd">
<svg version="1.1" xmlns="http://www.w3.org/2000/svg" xmlns:xlink="http://www.w3.org/1999/xlink" x="0px" y="0px" viewBox="0 0 1000 1000" enable-background="new 0 0 1000 1000" xml:space="preserve">
<metadata> Svg Vector Icons : http://www.onlinewebfonts.com/icon </metadata>
<g><g transform="translate(0.000000,460.000000) scale(0.100000,-0.100000)"><path d="M4568,3984.9c-984.1-101.5-2012.2-486.3-2510-940c-124.4-114.9-178-210.6-193.4-346.5c-9.6-82.3-28.7-120.6-113-224c-310.2-386.7-574.4-919-704.5-1418.7C955.3,701.4,936.1,531,926.5,58.1L917-397.5h78.5h78.5v-409.7V-1215l-118.7-9.6c-340.8-28.7-658.6-283.3-804.1-641.4c-44-111-44-116.8-49.8-1068.3c-3.8-666.3,0-991.7,15.3-1072.1c72.7-375.2,400.1-702.6,775.4-775.4c76.6-15.3,308.2-19.1,689.2-15.3l574.4,5.7l124.4,59.3c231.7,109.1,386.7,317.8,421.2,564.8c23,158.9,23,2113.7,1.9,2270.7c-45.9,308.2-281.4,578.2-570.5,654.8l-82.3,23v409.7v411.6h84.2h84.2l9.6,398.2c7.7,296.8,19.1,438.4,47.9,568.6c82.3,361.8,237.4,719.9,436.5,997.5c103.4,147.4,116.8,157,193.4,168.5c97.6,13.4,172.3,49.8,302.5,145.5c371.4,277.6,1135.3,486.3,1790.1,486.3c652.8,1.9,1418.7-208.7,1795.8-490.1c55.5-42.1,147.4-95.7,202.9-120.6c260.4-114.9,606.9-714.1,731.3-1263.6c19.1-86.2,34.5-270,40.2-511.2l9.6-379.1h84.2h84.3v-411.6v-409.7l-80.4-23c-287.2-74.7-520.8-340.8-570.5-643.3c-24.9-147.4-24.9-2146.2,0-2291.7c40.2-243.1,195.3-448,421.2-555.2l124.4-59.3l574.4-5.7c381-3.8,612.6,0,689.2,15.3c369.5,70.8,696.9,394.4,773.5,762c26.8,130.2,28.7,1870.5,1.9,2016c-76.6,413.5-492,779.2-884.5,783h-72.8v411.6v411.6h78.5h78.5L9071,58.1c-7.7,392.5-17.2,486.3-61.3,693.1c-128.3,610.7-396.3,1179.4-781.1,1659.9c-93.8,118.7-97.6,124.4-99.6,250.8c-1.9,157-46,247-176.1,369.5c-448,417.4-1336.3,781.1-2245.8,919C5408.5,3994.4,4832.2,4013.6,4568,3984.9z M2293.5,2056.9l212.5-199.1l-122.5-187.6c-296.8-451.8-453.7-942-480.6-1487.6L1891.5-72h-321.6h-323.6v187.6c0,725.6,275.7,1522.1,737.1,2132.8C2029.3,2307.7,2006.3,2323.1,2293.5,2056.9z M8058.2,2101c421.2-566.7,658.6-1225.3,687.3-1899.2L8757-72h-325.5h-325.5l-11.5,225.9c-28.7,583.9-218.3,1083.6-616.5,1623.5c-28.7,40.2-24.9,45.9,90,153.2c65.1,63.2,172.3,162.7,235.5,222.1c63.2,61.3,118.7,111,124.4,111C7933.7,2263.7,7991.2,2191,8058.2,2101z M2104-1576.9c111-46,252.7-199.1,252.7-275.7c0-11.5-67-19.1-181.9-19.1c-168.5,0-187.6-3.8-229.7-47.9c-61.3-59.3-61.3-143.6-1.9-214.4c44-51.7,55.5-53.6,239.3-59.3l193.4-7.7v-160.8v-160.8h-191.5c-180,0-197.2-3.8-239.3-47.9c-67-65.1-63.2-149.3,7.7-222.1c53.6-53.6,63.2-55.5,239.3-55.5h183.8v-162.7v-162.7h-191.5c-180,0-197.2-3.8-239.3-47.9c-70.8-68.9-65.1-164.6,11.5-227.8c53.6-45.9,72.7-49.8,239.3-49.8h180v-162.7v-162.7h-191.5c-180,0-197.2-3.8-239.3-47.9c-32.5-30.6-47.9-67-47.9-109.1c1.9-128.3,74.7-168.5,306.3-168.5c153.2,0,174.2-3.8,164.7-30.6c-5.8-17.2-11.5-38.3-11.5-47.9c0-36.4-147.4-178.1-220.2-210.6c-67-30.6-132.1-36.4-482.5-36.4h-407.8v1464.6v1464.6h392.5C1950.8-1546.2,2046.5-1552,2104-1576.9z M8751.2-3010.8v-1464.6h-405.9c-352.3,0-417.4,5.7-484.4,36.4c-72.8,32.5-220.2,174.2-220.2,210.6c0,9.6-5.7,30.6-11.5,47.9c-9.6,26.8,11.5,30.6,164.6,30.6c231.6,0,304.4,40.2,306.3,168.5c0,42.1-15.3,78.5-47.9,109.1c-42.1,44-59.3,47.9-239.3,47.9h-191.4v162.7v162.7h183.8c176.1,0,185.7,1.9,239.3,55.5c70.8,72.7,74.7,157,7.7,222.1c-42.1,44-59.3,47.9-239.3,47.9h-191.4v162.7v162.7h183.8c176.1,0,185.7,1.9,239.3,55.5c70.8,72.8,74.7,157,7.7,222.1c-42.1,44-59.3,47.9-239.3,47.9h-191.4v160.8v160.8l193.4,7.7c183.8,5.7,195.3,7.6,239.3,59.3c59.4,70.8,59.4,155.1-1.9,214.4c-42.1,44-61.3,47.9-229.7,47.9c-114.9,0-181.9,7.7-181.9,19.1c0,40.2,55.5,124.5,118.7,185.7c114.9,111,157,118.7,595.4,120.6h396.3V-3010.8z"/></g></g>
</svg>