<svg id="Layer_1" enable-background="new 0 0 512 512" height="512" viewBox="0 0 512 512" width="512" xmlns="http://www.w3.org/2000/svg"><path d="m431.27 119.35c-21.496 21.515-58.471 25.041-84.76-1.86-50.062-50.042-132.011-50.417-182.3 1.3-22.757 23.398-60.273 23.767-83.48.56-5.23-5.22-6.2-13.35-2.34-19.65 80.97-132.6 273.935-133.111 355.22 0 3.86 6.3 2.89 14.43-2.34 19.65z" fill="#a2d0ff"/><path d="m128 224v208h-64c-35.29 0-64-28.71-64-64v-80c0-29.77 20.43-54.85 48-61.97v-2.03z" fill="#8bc4ff"/><path d="m512 288v80c0 29.77-20.43 54.85-48 61.97v2.03h-80v-208h64c35.29 0 64 28.71 64 64z" fill="#8bc4ff"/><path d="m128 224v145h-64c-35.29 0-64-28.71-64-64v-17c0-29.77 20.43-54.85 48-61.97v-2.03z" fill="#a2d0ff"/><path d="m512 288v17c0 29.77-20.43 54.85-48 61.97v2.03h-80v-145h64c35.29 0 64 28.71 64 64z" fill="#a2d0ff"/><path d="m464 226.03c0-25.534 2.286-72.844-30.39-126.33-36.809-60.278-102.69-99.7-177.61-99.7-114.458 0-208 92.716-208 208v18.03c-27.57 7.12-48 32.2-48 61.97v80c0 35.29 28.71 64 64 64h32c0 8.84 7.16 16 16 16s16-7.16 16-16v-208c0-8.84-7.16-16-16-16s-16 7.16-16 16h-16c0-23.618-1.228-53.971 17.63-92.83 21.453 9.909 48.432 6.306 66.59-12.38 49.343-50.764 131.306-52.264 182.29-1.3 12.076 12.076 25.331 18.927 42.82 19.06 8.656 0 16.93-1.629 25.04-5.38 18.842 38.827 17.63 69.764 17.63 92.83h-16c0-8.84-7.16-16-16-16s-16 7.16-16 16v208c0 8.84 7.16 16 16 16s16-7.16 16-16h13.97c-7.12 27.57-32.2 48-61.97 48h-64c0-17.64-14.36-32-32-32s-32 14.36-32 32 14.36 32 32 32h96c48.1 0 88.05-35.56 94.95-81.78 28.1-6.75 49.05-32.08 49.05-62.22v-80c0-29.77-20.43-54.85-48-61.97zm-368 29.97v144h-32c-17.64 0-32-14.36-32-32v-80c0-17.64 14.36-32 32-32zm274.8-159.44c-61.326-63.531-165.479-65.966-229.53-.08-7.15 7.35-17.506 9.737-26.83 6.91 78.03-101.125 216.893-89.556 283.11.01-9.141 2.786-19.545.569-26.75-6.84zm109.2 271.44c0 11.82-6.45 22.15-16 27.69v-59.69c0-8.84-7.16-16-16-16s-16 7.16-16 16v64h-16v-144h32c17.64 0 32 14.36 32 32z" fill="#2e58ff"/></svg>